<svg xmlns="http://www.w3.org/2000/svg" width="429" height="400" xmlns:xlink="http://www.w3.org/1999/xlink" xmlns:figma="http://www.figma.com/figma/ns">
  <desc>
    Created using Figma
  </desc>
  <g style="mix-blend-mode:normal" figma:type="frame">
    <use fill="#FFF" xlink:href="#a" transform="translate(95.34 45.54)" style="mix-blend-mode:normal" figma:type="vector"/>
    <use fill="#F2D7CF" xlink:href="#b" transform="translate(127.45 45.19)" style="mix-blend-mode:normal" figma:type="vector"/>
    <use fill="#B07E4A" xlink:href="#c" style="mix-blend-mode:normal" figma:type="vector"/>
    <use fill="#D5BA9E" xlink:href="#d" transform="translate(134.83 280.43)" style="mix-blend-mode:normal" figma:type="vector"/>
    <use fill="#F9B871" xlink:href="#e" transform="translate(11.28 7.42)" style="mix-blend-mode:normal" figma:type="vector"/>
  </g>
  <defs>
    <path id="a" fill-rule="evenodd" d="M100.713.425c-9.105.843-23.595 3.955-23.595 5.067 0 .843 3.302 26.755 3.862 30.306.877 5.564 6.873 52.094 7.887 61.213 3.992 35.87 4.25 57.14.823 68.09-.64 2.04-2.127 5.68-9.105 22.25-1.67 3.97-3.038 7.3-3.038 7.41 0 .11 16.816.2 37.37.2 29.73 0 37.324-.11 37.144-.53-7.84-18.63-10.88-26.02-11.72-28.46-4.77-13.85-3.38-43.05 5-104.81 2.93-21.6 7.3-54.87 7.3-55.62 0-1.19-13.78-4.1-24.39-5.15-5.23-.51-21.69-.48-27.52.06zm21.54 147.806c15.21 6.98 9.818 25.89-7.382 25.89-18.48 0-22.68-20.93-5.36-26.7 2.92-.97 9.81-.53 12.75.82zM16.075 217.31C5.413 219.1-2.155 230.708.553 241.11c4.195 16.13 24.857 20.603 34.687 7.51 10.844-14.444-1.32-34.32-19.164-31.315zm178.734 3.288l-4.36 2.85-1.14 4.1c-16.39 59.134-78.67 80.013-118.8 39.827l-4.11-4.107-3.77.94c-6.32 1.582-15.46 1.273-22-.744-.73-.225-.73-.156.03 12.25 2.55 41.627 13.1 71 25.49 71 6.89 0 13.78-10.07 15.91-23.25 1.02-6.337 1.34-7.286 2.67-7.977 1.01-.52 6.2-.55 36.12-.203l34.95.404.926.955c.51.523 1.424 2.62 2.034 4.655 5.19 17.297 12.828 26.298 19.83 23.368 11.372-4.757 20.524-32.932 21.87-67.344.407-10.385.86-10.877 8.19-8.864 4.465 1.226 8.91 1.28 10.88.13 7.45-4.357-2.127-28.485-19.966-50.317-.32-.39-1.5.18-4.79 2.33zm-148.01 9.05c-.37.233-.39.94-.06 2.68.43 2.353.23 8.993-.32 10.408-.38.98 1.06 1.53 4.97 1.893l2.97.27-1.68-3.61c-.93-1.99-2.33-5.49-3.11-7.8-1.38-4.06-1.73-4.53-2.78-3.86z"/>
    <path id="b" fill-rule="evenodd" d="M80.945.164c1.003.09 2.644.09 3.647 0C85.594.074 84.774 0 82.768 0c-2.005 0-2.826.074-1.823.164zm25.52 119.963c0 .827.087 1.165.195.75.107-.412.107-1.09 0-1.502-.108-.414-.196-.075-.196.752zm-.413 6.443c0 1.063.084 1.498.185.967.103-.532.103-1.402 0-1.933-.1-.532-.185-.097-.185.966zm-.406 7.517c.003 1.654.08 2.278.173 1.387.09-.892.09-2.245-.01-3.007-.1-.763-.17-.033-.17 1.62zM59.72 136.02c0 1.064.083 1.498.184.967.103-.532.103-1.402 0-1.933-.102-.532-.185-.097-.185.966zm-.01 13.102c.005.945.093 1.28.196.746.102-.533.098-1.307-.01-1.718-.106-.41-.19.027-.186.972zm45.925 1.503c0 1.3.08 1.83.18 1.182.096-.65.096-1.713 0-2.363-.1-.65-.18-.118-.18 1.18zm-86.36 53.283c0 22.67 13.152 50.155 30.58 63.907 42.274 33.36 98.877-.134 103.49-61.24l.3-3.973H19.275v1.306zm-8.795 13.168c-2.926.864-3.16 1.192-1.854 2.598.605.652 1.448 1.733 1.874 2.405.653 1.03.973 1.18 2.06.96 1.733-.35 1.696-.24 1.11-3.32-.65-3.43-.618-3.41-3.19-2.65zm-9.223 5.93c.8.827 1.552 1.504 1.67 1.504.118 0-.44-.677-1.24-1.504-.8-.826-1.553-1.503-1.67-1.503-.12 0 .44.677 1.24 1.503zm8.212 30.296l-1.83 2.59 1.41.593c4.14 1.734 12.93 2.48 17.95 1.527 2.91-.553 2.86-.285.74-3.474l-1.83-2.75-4.35.144c-3 .1-5.18-.068-7.01-.537-1.46-.375-2.8-.682-2.97-.682-.17 0-1.13 1.165-2.13 2.59zm180.66 9.654c0 .945.09 1.28.19.746s.1-1.307-.01-1.718c-.11-.41-.19.027-.19.972zM7.79 265.318c0 .827.087 1.165.196.752.107-.414.107-1.09 0-1.504-.11-.413-.196-.075-.196.752zm30.34 2.255c1.78 1.897 2.165 2.238 2.165 1.915 0-.07-.917-.987-2.038-2.04l-2.04-1.915 1.913 2.04zm96.523-.214l-1.478 1.61 1.61-1.48c1.496-1.38 1.805-1.75 1.477-1.75-.07 0-.795.72-1.61 1.61zm33.595 12.77c.004.94.092 1.28.195.74.103-.54.1-1.31-.01-1.72-.106-.41-.19.02-.185.97zM58.435 315.46c1.128.088 2.866.087 3.86-.003.996-.09.074-.16-2.05-.16-2.123 0-2.938.077-1.81.166zm36.668.433c1.946.08 5.132.08 7.078 0 1.95-.08.36-.145-3.53-.145s-5.48.064-3.54.145z"/>
    <path id="c" fill-rule="evenodd" d="M48.264.207c-9.785.98-14.42 1.674-21.837 3.267l-2.53.543-2.07 3.866C4.887 39.533-.586 72.943 7.134 97.563c1.97 6.28 6.01 14.474 9.642 19.56 3.08 4.312 3.112 4.15-1.373 6.905C.743 133.033 0 133.62 0 136.174c0 4.627 3.193 4.902 9.66.832 9.03-5.685 13.725-8.663 14.424-9.15.587-.41 1.36.113 4.72 3.185 2.208 2.02 4.66 4.24 5.45 4.92l1.436 1.25-2.294 3.96c-1.26 2.18-3.62 6.23-5.242 9.01-4.05 6.94-4.11 9.79-.235 10.64 2.81.62 3.38.01 8.82-9.67 1.26-2.24 2.48-4.37 2.72-4.72.23-.35.81-1.35 1.28-2.22 1.26-2.34 1.27-2.34 6.52.99 5.21 3.3 17.48 9.71 22.55 11.78l3.1 1.27v6.02c.03 31.25 12.34 60.38 35.51 84.04l6.16 6.3-2.29.297c-20.688 2.67-31.148 24.01-20.528 41.9 6.542 11.025 20.51 15.56 33.384 10.84 2.406-.88 2.26-1.28 2.7 7.25 1 19.356 2.644 32.17 5.987 46.77 1.11 4.846 3.41 12.91 3.856 13.51.18.24.727 1.538 1.225 2.89 9.853 26.778 31.05 29.57 42.255 5.57 1.488-3.175 4.15-12.432 4.15-14.41v-.96l16.84.13c9.26.07 23.056.248 30.656.39l13.82.264.49 1.56c10.42 33.22 30.88 37.597 44.81 9.584 6.42-12.91 9.49-27.34 11.65-54.732.143-1.83.316-3.33.38-3.33.07 0 1.6.207 3.404.458 8.35 1.16 15.234-2.254 17.114-8.49 1.48-4.916.142-16.084-2.54-21.18-.31-.59-1.4-2.91-2.42-5.155-1.02-2.243-2.385-4.95-3.03-6.013-.645-1.06-1.58-2.68-2.08-3.594-1.77-3.24-9.71-14.8-11.63-16.93-2.35-2.6-2.385-2.375.8-4.93 1.603-1.29 5.11-4.543 7.8-7.23 22.45-22.483 35.2-51.725 36.21-83.053l.093-2.99 3.65-1.4c2-.77 4.22-1.69 4.93-2.04.71-.35 3.51-1.625 6.22-2.833 5.73-2.55 15.594-7.75 18.23-9.61 1.45-1.02 5.82-3.695 6.045-3.695.183 0 3.98 6.42 6.025 10.21.86 1.59 1.804 3.18 2.1 3.54.29.35.93 1.44 1.415 2.41 1.9 3.78 6.87 3.45 7.614-.516.202-1.105-.02-1.93-1.01-3.7-4.964-8.897-7.14-12.677-7.61-13.23-.295-.36-.88-1.32-1.29-2.13l-.754-1.49 1.29-1.094c.71-.6 3.133-2.79 5.39-4.87l4.1-3.783 2.714 1.657c2.655 1.62 9.57 6.025 14.506 9.24 4.19 2.73 7.744 1.75 7.72-2.13-.01-2.26-.764-3.02-6.55-6.633l-9.006-5.64c-2.173-1.363-3.903-2.67-3.844-2.9.06-.23 1.375-2.252 2.924-4.49 16.41-23.734 16.896-60.34 1.25-94.51-.76-1.66-2.004-4.46-2.77-6.23-1.73-4-5.98-12.03-6.37-12.03-.16 0-3.472-.57-7.365-1.27C372.768-.55 351.238.13 329.21 6c-23.953 6.38-44.72 21.74-54.86 40.57-2.574 4.78-2.336 4.53-3.657 3.842-.635-.327-2.67-1.192-4.53-1.92-1.86-.73-3.96-1.596-4.67-1.922-3.877-1.784-21.137-6.23-28.35-7.3-24.25-3.593-53.91-.725-73.46 7.108-3.987 1.594-3.73 1.64-5.028-.924-11.38-22.495-38.06-39.1-71.16-44.296-5.4-.85-29.693-1.495-35.23-.94zM78.5 8.37c31.707 3.538 58.487 19.285 69.443 40.834l.915 1.8-4.11 2.016c-13.128 6.436-27.047 16.626-37.186 27.223-4.12 4.305-4.703 4.77-5.355 4.253-.402-.32-6.333-5.606-13.18-11.75-15.82-14.195-14.996-13.53-16.79-13.53-2.692 0-4.416 2.817-3.16 5.164.302.57 27.476 25.267 29.088 26.44.075.054-.74 1.253-1.814 2.664-11.3 14.89-18.84 33.51-22.33 55.166l-.25 1.59-2.01-.867c-6.71-2.88-21.27-10.852-24.93-13.65l-1.03-.786 8.73-15.2c11.33-19.732 11.27-19.612 11.22-21.11-.02-.704-.47-1.742-.99-2.305-2-2.136-2.49-1.905-20.87 9.823-9.34 5.966-17.11 10.9-17.27 10.965-.54.23-5.11-6.64-7.67-11.518C7.2 83.228 9 54.012 24.11 21.2c1.413-3.072 3.06-6.68 3.66-8.02l1.084-2.436 3.7-.67c15-2.72 31.404-3.327 45.95-1.704zm303.32 1.05c4.373.385 13.485 1.666 16.89 2.378 1.097.23 1.56.943 4.214 6.48 19.553 40.81 19.62 75.375.196 99.49-.646.802-4.882-1.734-29.742-17.804-6.62-4.278-8.796-4.463-10.052-.854-.58 1.663-1.135.563 10.767 21.303l9.093 15.845-.988.746c-5.563 4.2-35.13 19.234-35.13 17.86 0-13.533-8.012-37.712-17.73-53.506l-2.747-4.464 16.5-14.816c18.71-16.803 18.86-16.99 15.99-19.866-2.52-2.53-.78-3.834-29.73 22.24-7.99 7.196-6.89 6.865-9.98 3.008-8.42-10.513-23.75-23.328-36.64-30.624-2-1.135-3.71-2.115-3.8-2.178-.24-.18 3.12-6.09 5.39-9.47 17.65-26.374 53.71-39.598 97.5-35.768zM219.652 45.49c54.844 3.878 101.424 38.93 115.566 86.966 13.38 45.448-3.158 92.853-42.85 122.832-5.148 3.888-4.874 3.848-4.44.67.194-1.417.403-5.007.465-7.98l.114-5.404-1.204-1.042-1.205-1.042H141.22l-1.157 1.378-1.158 1.378.295 5.603.296 5.6-3.574 1.19c-1.965.65-3.96 1.29-4.43 1.42-.602.16-1.883-.56-4.29-2.41-40.39-30.98-56.364-80.68-40.66-126.5 17.874-52.16 73.767-86.87 133.11-82.67zM45.447 120.594l-5.69 9.893-2.396-2.094c-4.36-3.808-5.91-5.61-5.18-6.024.36-.21 4.7-2.97 9.65-6.15 4.96-3.18 9.08-5.72 9.16-5.65.08.07-2.41 4.57-5.54 10.02zm341.586-3.13c5.037 3.212 9.412 6.084 9.723 6.38.46.44-.166 1.22-3.41 4.253-2.187 2.043-4.107 3.57-4.265 3.39-.44-.495-11.5-19.866-11.34-19.866.08 0 4.26 2.63 9.3 5.85zm-109.035 52.303c-8.847 2.412-14.287 10.743-12.49 19.128 2.972 13.88 19.208 18.355 28.798 7.938 10.653-11.572-1.168-31.193-16.308-27.066zM158.002 186.85c-.826.234-2.078 1.225-3.14 2.485-5.184 6.156-20.396 8.138-24.344 3.173-2.892-3.638-3.37-3.996-5.32-3.995-4.597.004-7.35 4.6-5.223 8.72 6.82 13.207 35.52 11.75 44.41-2.254 2.853-4.5-1.16-9.6-6.383-8.13zm47.494 6.308c-16.39 4.29-14.665 23.97 2.314 26.41 5.736.825 12.762-1.744 15.848-5.796 8.18-10.74-3.826-24.367-18.162-20.615zm75.498 57.103c-.043 13.31-6.462 33-14.88 45.64-29.563 44.43-86.247 39.26-110.216-10.04-5.24-10.78-9.14-25.83-9.17-35.38l-.007-2.68H281l-.006 2.47zm-139.767 14.45l.63 3.18-1.525.47c-1.218.38-1.592.35-1.857-.12-.183-.32-1.112-1.58-2.065-2.79-1.174-1.48-1.555-2.26-1.18-2.39 5.544-2.03 5.245-2.11 5.997 1.67zm-20.285-1.49c11.666 3.64 17.286 16.8 11.865 27.78-8.855 17.95-36.175 12.57-37.456-7.37-.9-14.06 12.26-24.55 25.6-20.4zm176.115 3.01c14.124 17.73 23.428 38.91 20.138 45.85-1.483 3.13-6.92 3.88-14.176 1.95-6.4-1.7-6.7-1.26-7.09 10.2-1.58 46.91-19.1 79.42-33.18 61.58-2.72-3.44-6.25-10.87-8.38-17.62-1.53-4.83-1.97-5.79-2.93-6.28-.9-.45-8.3-.63-35.98-.87l-34.85-.3-1.01 1.02c-.78.77-1.09 1.69-1.31 3.878-.94 9.147-5 18.87-9.88 23.64-11.16 10.9-23.72-6.22-29.42-40.12-1.94-11.56-4.6-39.334-3.83-40.1.11-.11 2.12.194 4.47.68 5.34 1.1 14.51.94 19.23-.34l2.94-.8 3.275 3.37c40.1 41.356 103.07 20.52 119.58-39.565.563-2.06 1.174-3.8 1.355-3.86.18-.06 2.067-1.26 4.18-2.663 4.72-3.123 4.01-3.16 6.83.375zm-152.37 11.64c.65 1.89 1.966 5.23 2.922 7.41l1.97 4.51c.29.68-2.8.73-5.8.08l-2.12-.45.22-5.45c.12-3.24.03-6.11-.24-7.09-.45-1.59-.04-2.2 1.63-2.41.11-.01.74 1.52 1.39 3.41zm3.445 19.13l5.487.11 1.72 2.67c1.94 3.02 1.95 2.98-.56 3.47-5.22 1.01-13.92.22-18.94-1.72l-1.22-.47 1.28-1.46c.7-.81 1.61-2.03 2.03-2.73l.74-1.27 1.98.65c1.24.41 4.01.69 7.46.76z"/>
    <path id="d" fill-rule="evenodd" d="M7.314 1.724c0 1.535.078 2.164.172 1.396.096-.768.096-2.024 0-2.792-.094-.768-.172-.14-.172 1.396zM0 1.724c0 1.063.084 1.498.186.966.103-.53.103-1.4 0-1.933C.084.227 0 .66 0 1.724zm12.646 28.654c.53.103 1.4.103 1.93 0 .532-.102.097-.186-.965-.186-1.06 0-1.49.084-.96.186zM.43 33.082c0 1.063.083 1.498.185.966.103-.53.103-1.4 0-1.933-.102-.53-.186-.096-.186.967zM47.18 80.2c.414.108 1.09.108 1.503 0 .413-.108.075-.196-.75-.196-.827 0-1.164.088-.752.196zm29.192.452c1.603.083 4.112.083 5.577 0 1.46-.085.15-.152-2.92-.152s-4.27.07-2.67.152zm66.777 26.207l-1.48 1.61 1.61-1.48c1.49-1.38 1.8-1.75 1.47-1.75-.07 0-.8.72-1.61 1.61zm-125.25.24c0 .07.63.7 1.39 1.39l1.39 1.26-1.26-1.4c-1.18-1.3-1.53-1.6-1.53-1.26z"/>
    <path id="e" fill-rule="evenodd" d="M41.7.255c-6.446.376-14.464 1.317-20.43 2.4l-3.698.67-1.086 2.434c-.6 1.34-2.245 4.94-3.66 8.02C-2.288 46.59-4.082 75.8 7.643 98.17c2.557 4.878 7.134 11.747 7.673 11.518.152-.066 7.922-5 17.267-10.965C50.958 86.995 51.447 86.763 53.45 88.9c.53.563.978 1.6 1 2.305.04 1.498.105 1.377-11.223 21.108l-8.727 15.2 1.026.786c3.664 2.8 18.222 10.77 24.934 13.65l2.017.86.256-1.59c3.49-21.66 11.03-40.28 22.336-55.17 1.07-1.41 1.88-2.61 1.81-2.67-1.61-1.17-28.79-25.87-29.09-26.44-1.26-2.35.47-5.17 3.16-5.17 1.79 0 .97-.66 16.79 13.53 6.84 6.14 12.78 11.43 13.18 11.75.65.52 1.23.05 5.35-4.25 10.14-10.6 24.05-20.79 37.18-27.23l4.11-2.02-.92-1.8C122.63 14.19 84.97-2.28 41.7.25zm304.853 1.287c-33.378 2.31-59.4 15.128-73.53 36.224-2.266 3.382-5.627 9.29-5.386 9.472.083.062 1.793 1.043 3.798 2.178 12.888 7.296 28.223 20.11 36.642 30.623 3.09 3.85 1.992 4.18 9.98-3.01C347 50.95 345.26 52.26 347.787 54.79c2.875 2.878 2.725 3.064-15.982 19.867L315.31 89.473l2.747 4.465c9.717 15.793 17.73 39.972 17.73 53.507 0 1.372 29.566-13.66 35.13-17.86l.987-.748-9.093-15.844c-11.9-20.74-11.34-19.64-10.76-21.303 1.26-3.61 3.44-3.425 10.05.854 24.86 16.07 29.1 18.606 29.74 17.805 19.43-24.12 19.36-58.69-.19-99.5-2.65-5.54-3.11-6.25-4.21-6.48-11.22-2.34-29.56-3.62-40.87-2.84zm-192.88 43.77c-25.165 8.72-46.606 23.965-61.373 43.64-38.073 50.734-27.924 118.75 23.62 158.286 2.407 1.847 3.688 2.566 4.29 2.407.47-.125 2.465-.764 4.43-1.42l3.574-1.194-.296-5.6-.295-5.6 1.158-1.38 1.16-1.38h31.46l3.17-7.62c10.52-25.27 10.46-25.04 11.24-36.95 1.06-16.16-1.43-44.58-8.41-95.88-1.3-9.57-3.28-24.55-4.41-33.28-1.61-12.53-2.17-15.91-2.67-15.99-.34-.05-3.33.84-6.63 1.98zm82.22 5.947c-.535 4.42-1.92 15.01-3.078 23.51-9.373 68.85-11.976 96.38-10.765 113.88.75 10.82 1.392 13.28 6.89 26.37 2.63 6.26 5.4 12.88 6.155 14.71l1.376 3.33h38.35l1.21 1.04 1.21 1.04-.11 5.4c-.06 2.97-.27 6.56-.46 7.98-.43 3.17-.71 3.22 4.44-.67 70.83-53.5 60.51-155.06-19.84-195.37-7.78-3.91-21.66-9.3-23.93-9.3-.26 0-.85 3.34-1.42 8.05zM30.547 108.8c-4.956 3.175-9.3 5.94-9.653 6.143-.726.414.825 2.216 5.186 6.024l2.397 2.093 5.688-9.893c3.13-5.44 5.62-9.945 5.54-10.014-.083-.07-4.203 2.473-9.158 5.65zm341.364 5.167c3.08 5.375 5.73 9.92 5.89 10.095.16.176 2.08-1.35 4.27-3.392 3.25-3.032 3.87-3.814 3.41-4.254-.56-.535-18.75-12.22-19.02-12.22-.07 0 2.38 4.396 5.46 9.77zm-97.24 48.45c11.82 3.06 16.49 18.154 8.36 26.99-9.59 10.417-25.82 5.942-28.8-7.938-2.48-11.58 8.79-22.07 20.45-19.05zM151.44 180.1c2.855 1.44 3.54 4.506 1.665 7.46-8.89 14.004-37.59 15.46-44.41 2.252-2.128-4.117.625-8.714 5.22-8.72 1.952 0 2.43.36 5.322 3.995 3.948 4.966 19.16 2.983 24.344-3.172 2.46-2.922 4.66-3.43 7.86-1.815z"/>
  </defs>
</svg>