<svg width="429" height="400" viewBox="0 0 429 400" version="1.1" xmlns="http://www.w3.org/2000/svg" xmlns:xlink="http://www.w3.org/1999/xlink" xmlns:figma="http://www.figma.com/figma/ns">
<title>leon-logo</title>
<desc>Created using Figma</desc>
<g id="Canvas" transform="translate(1306 2377)" figma:type="canvas">
<g id="leon-logo" style="mix-blend-mode:normal;" figma:type="symbol">
<g id="svgg" style="mix-blend-mode:normal;" figma:type="frame">
<g id="path0" style="mix-blend-mode:normal;" figma:type="vector">
<use xlink:href="#path0_fill" transform="translate(-1210.66 -2331.46)" fill="#FFFFFF" style="mix-blend-mode:normal;"/>
</g>
<g id="path1" style="mix-blend-mode:normal;" figma:type="vector">
<use xlink:href="#path1_fill" transform="translate(-1178.55 -2331.81)" fill="#F2D7CF" style="mix-blend-mode:normal;"/>
</g>
<g id="path2" style="mix-blend-mode:normal;" figma:type="vector">
<use xlink:href="#path2_fill" transform="translate(-1306 -2377)" fill="#B07E4A" style="mix-blend-mode:normal;"/>
</g>
<g id="path3" style="mix-blend-mode:normal;" figma:type="vector">
<use xlink:href="#path3_fill" transform="translate(-1171.17 -2096.57)" fill="#D5BA9E" style="mix-blend-mode:normal;"/>
</g>
<g id="path4" style="mix-blend-mode:normal;" figma:type="vector">
<use xlink:href="#path4_fill" transform="translate(-1294.72 -2369.58)" fill="#F9B871" style="mix-blend-mode:normal;"/>
</g>
</g>
</g>
</g>
<defs>
<path id="path0_fill" fill-rule="evenodd" d="M 100.713 0.425298C 91.6077 1.26831 77.1179 4.38048 77.1179 5.49196C 77.1179 6.33498 80.4202 32.2472 80.9801 35.7985C 81.8574 41.3624 87.8528 87.8924 88.8674 97.0109C 92.8594 132.879 93.1157 154.147 89.69 165.096C 89.0508 167.138 87.5632 170.774 80.5854 187.348C 78.9144 191.316 77.5469 194.65 77.5469 194.757C 77.5469 194.864 94.363 194.951 114.917 194.951C 144.647 194.951 152.241 194.841 152.061 194.414C 144.217 175.777 141.172 168.387 140.334 165.955C 135.557 152.105 136.949 122.897 145.329 61.1426C 148.261 39.5422 152.624 6.27377 152.624 5.52633C 152.624 4.33323 138.838 1.41865 128.232 0.369453C 122.999 -0.148168 106.537 -0.114875 100.713 0.425298ZM 122.252 148.231C 137.463 155.204 132.071 174.115 114.871 174.117C 96.3879 174.118 92.1847 153.186 109.508 147.416C 112.421 146.445 119.32 146.886 122.252 148.231ZM 16.0763 217.305C 5.41325 219.1 -2.15447 230.704 0.552576 241.11C 4.74829 257.24 25.4105 261.713 35.2401 248.62C 46.0844 234.176 33.9209 214.301 16.0763 217.305ZM 194.81 220.593L 190.45 223.444L 189.315 227.543C 172.931 286.677 110.651 307.556 70.5176 267.37L 66.4141 263.262L 62.6496 264.203C 56.3302 265.784 47.1977 265.475 40.6521 263.458C 39.9217 263.233 39.9217 263.302 40.6821 275.708C 43.2369 317.335 53.7852 346.708 66.1782 346.708C 73.0713 346.708 79.9622 336.639 82.0901 323.458C 83.1123 317.121 83.4308 316.172 84.765 315.481C 85.7742 314.959 90.9696 314.929 120.892 315.277L 155.841 315.682L 156.765 316.637C 157.273 317.161 158.189 319.257 158.799 321.293C 163.988 338.59 171.622 347.591 178.623 344.661C 189.998 339.903 199.15 311.728 200.497 277.316C 200.903 266.933 201.358 266.441 208.684 268.454C 213.151 269.68 217.595 269.734 219.562 268.584C 227.012 264.227 217.439 240.099 199.6 218.267C 199.277 217.872 198.096 218.446 194.81 220.593ZM 46.8052 229.645C 46.4384 229.878 46.4233 230.584 46.7451 232.324C 47.1816 234.678 46.9811 241.318 46.4319 242.733C 46.0512 243.713 47.4927 244.262 51.4052 244.626L 54.3825 244.903L 52.6976 241.298C 51.771 239.315 50.3713 235.807 49.5862 233.504C 48.2048 229.45 47.8616 228.972 46.8052 229.645Z"/>
<path id="path1_fill" fill-rule="evenodd" d="M 80.9452 0.164306C 81.948 0.254514 83.5889 0.254514 84.5917 0.164306C 85.5945 0.0740984 84.7741 -6.55458e-07 82.7684 -6.55458e-07C 80.7628 -6.55458e-07 79.9424 0.0740984 80.9452 0.164306ZM 106.464 120.127C 106.464 120.954 106.552 121.292 106.66 120.878C 106.767 120.465 106.767 119.788 106.66 119.375C 106.552 118.961 106.464 119.3 106.464 120.127ZM 106.052 126.57C 106.052 127.633 106.136 128.068 106.237 127.537C 106.34 127.005 106.34 126.135 106.237 125.604C 106.136 125.072 106.052 125.507 106.052 126.57ZM 105.646 134.087C 105.649 135.741 105.726 136.365 105.819 135.474C 105.912 134.582 105.91 133.229 105.816 132.467C 105.72 131.704 105.644 132.434 105.646 134.087ZM 59.7188 136.02C 59.7188 137.084 59.8025 137.518 59.9044 136.987C 60.0074 136.455 60.0074 135.585 59.9044 135.054C 59.8025 134.522 59.7188 134.957 59.7188 136.02ZM 59.7103 149.122C 59.7146 150.067 59.8025 150.403 59.9055 149.868C 60.0084 149.335 60.0041 148.561 59.8969 148.15C 59.7896 147.74 59.7049 148.177 59.7103 149.122ZM 105.635 150.625C 105.635 151.925 105.715 152.456 105.814 151.807C 105.911 151.157 105.911 150.094 105.814 149.444C 105.715 148.794 105.635 149.326 105.635 150.625ZM 19.275 203.908C 19.275 226.577 32.4274 254.063 49.8548 267.815C 92.1294 301.175 148.732 267.681 153.346 206.576L 153.646 202.602L 86.4601 202.602L 19.275 202.602L 19.275 203.908ZM 10.4803 217.076C 7.5545 217.94 7.31962 218.268 8.62595 219.674C 9.23085 220.326 10.0739 221.407 10.4996 222.079C 11.1528 223.11 11.4735 223.259 12.561 223.041C 14.2932 222.694 14.2556 222.808 13.67 219.719C 13.0201 216.291 13.0523 216.318 10.4803 217.076ZM 1.25664 223.006C 2.05674 223.833 2.80858 224.51 2.92656 224.51C 3.04453 224.51 2.48575 223.833 1.68565 223.006C 0.885545 222.18 0.133706 221.503 0.0157287 221.503C -0.102249 221.503 0.456534 222.18 1.25664 223.006ZM 9.46895 253.302L 7.64459 255.893L 9.06246 256.485C 13.2078 258.219 21.9928 258.966 27.0133 258.012C 29.9273 257.459 29.8705 257.727 27.7523 254.538L 25.9247 251.787L 21.5778 251.932C 18.5833 252.032 16.4028 251.864 14.5709 251.395C 13.1091 251.02 11.7727 250.713 11.6022 250.713C 11.4327 250.713 10.4718 251.878 9.46895 253.302ZM 190.129 262.956C 190.133 263.901 190.221 264.237 190.324 263.702C 190.427 263.168 190.423 262.395 190.316 261.984C 190.209 261.573 190.124 262.011 190.129 262.956ZM 7.79153 265.318C 7.79153 266.145 7.87947 266.483 7.9878 266.07C 8.09505 265.656 8.09505 264.98 7.9878 264.566C 7.87947 264.153 7.79153 264.491 7.79153 265.318ZM 38.1332 267.573C 39.9115 269.47 40.2965 269.811 40.2965 269.488C 40.2965 269.419 39.3795 268.501 38.2587 267.448L 36.2209 265.533L 38.1332 267.573ZM 134.655 267.359L 133.177 268.969L 134.786 267.49C 136.283 266.111 136.592 265.748 136.264 265.748C 136.193 265.748 135.469 266.473 134.655 267.359ZM 168.25 280.138C 168.254 281.083 168.342 281.419 168.445 280.884C 168.548 280.351 168.544 279.577 168.436 279.166C 168.329 278.756 168.244 279.193 168.25 280.138ZM 58.435 315.464C 59.5633 315.552 61.3008 315.551 62.2961 315.461C 63.2914 315.371 62.369 315.299 60.2454 315.3C 58.1218 315.301 57.3067 315.375 58.435 315.464ZM 95.1025 315.897C 97.0491 315.976 100.235 315.976 102.181 315.897C 104.128 315.816 102.535 315.752 98.6418 315.752C 94.7485 315.752 93.1558 315.816 95.1025 315.897Z"/>
<path id="path2_fill" fill-rule="evenodd" d="M 48.2636 0.207169C 38.4789 1.18764 33.8435 1.88138 26.427 3.47398L 23.8958 4.01737L 21.8269 7.88342C 4.88749 39.5334 -0.585598 72.9425 7.13443 97.5639C 9.10251 103.842 13.1427 112.037 16.7764 117.124C 19.8556 121.435 19.8878 121.272 15.4025 124.028C 0.744332 133.033 0 133.62 0 136.174C 0 140.801 3.1929 141.076 9.65915 137.006C 18.6909 131.321 23.3853 128.343 24.0835 127.856C 24.6713 127.447 25.4446 127.969 28.8026 131.041C 31.012 133.061 33.4649 135.275 34.2543 135.961L 35.6904 137.207L 33.3962 141.165C 32.135 143.342 29.7765 147.396 28.1538 150.173C 24.105 157.106 24.0428 159.962 27.9189 160.815C 30.7385 161.434 31.2995 160.819 36.7393 151.142C 38.0017 148.897 39.2265 146.771 39.4614 146.417C 39.6963 146.062 40.2743 145.06 40.7452 144.191C 42.0118 141.85 42.0215 141.852 47.2715 145.176C 52.4872 148.479 64.7515 154.887 69.8202 156.959L 72.9284 158.23L 72.9348 164.243C 72.9659 195.494 85.2753 224.624 108.449 248.285L 114.611 254.577L 112.326 254.872C 91.6322 257.549 81.1729 278.889 91.7877 296.779C 98.3311 307.807 112.296 312.342 125.173 307.62C 127.576 306.74 127.429 306.342 127.871 314.874C 128.872 334.228 130.513 347.045 133.856 361.646C 134.965 366.49 137.266 374.554 137.711 375.158C 137.885 375.394 138.434 376.692 138.932 378.044C 148.785 404.821 169.982 407.615 181.187 383.615C 182.67 380.438 185.332 371.181 185.332 369.202L 185.332 368.245L 202.171 368.375C 211.432 368.446 225.228 368.622 232.828 368.766L 246.646 369.028L 247.136 370.589C 257.561 403.809 278.023 408.183 291.953 380.17C 298.373 367.26 301.445 352.827 303.604 325.436C 303.747 323.605 303.92 322.107 303.985 322.107C 304.052 322.107 305.583 322.313 307.389 322.564C 315.739 323.728 322.628 320.311 324.508 314.076C 325.99 309.161 324.651 297.993 321.97 292.897C 321.659 292.306 320.57 289.987 319.55 287.742C 318.53 285.498 317.168 282.791 316.523 281.728C 315.878 280.665 314.941 279.047 314.441 278.131C 312.671 274.884 304.733 263.325 302.81 261.193C 300.463 258.592 300.427 258.817 303.609 256.261C 305.215 254.972 308.724 251.718 311.408 249.03C 333.86 226.548 346.608 197.306 347.616 165.978L 347.712 162.986L 351.359 161.589C 353.364 160.82 355.585 159.904 356.292 159.554C 357 159.203 359.8 157.928 362.513 156.72C 368.241 154.169 378.107 148.967 380.743 147.107C 382.193 146.084 386.564 143.41 386.788 143.41C 386.973 143.41 390.766 149.832 392.815 153.618C 393.676 155.21 394.621 156.801 394.914 157.156C 395.207 157.51 395.845 158.594 396.332 159.564C 398.231 163.348 403.206 163.013 403.948 159.051C 404.155 157.946 403.93 157.119 402.943 155.352C 397.977 146.46 395.803 142.68 395.334 142.121C 395.036 141.767 394.454 140.809 394.04 139.992L 393.288 138.506L 394.576 137.414C 395.285 136.814 397.71 134.62 399.965 132.54L 404.064 128.756L 406.777 130.413C 409.43 132.033 416.348 136.439 421.281 139.651C 425.471 142.379 429.022 141.399 429 137.523C 428.987 135.264 428.234 134.502 422.451 130.889C 419.67 129.153 415.616 126.616 413.442 125.253C 411.268 123.889 409.538 122.585 409.597 122.353C 409.656 122.121 410.971 120.1 412.52 117.861C 428.93 94.1274 429.414 57.5224 413.768 23.3476C 413.011 21.6938 411.764 18.8909 410.999 17.119C 409.27 13.1187 405.019 5.09127 404.63 5.09127C 404.471 5.0902 401.156 4.51996 397.263 3.82192C 372.754 -0.570336 351.222 0.113739 329.195 5.98154C 305.241 12.3637 284.475 27.7205 274.334 46.5514C 271.76 51.3302 271.998 51.08 270.677 50.3949C 270.044 50.0684 268.007 49.2028 266.148 48.4737C 264.289 47.7445 262.187 46.8789 261.477 46.5525C 257.602 44.7666 240.342 40.3228 233.126 39.2532C 208.879 35.6577 179.219 38.5261 159.667 46.3592C 155.682 47.955 155.94 48.0022 154.641 45.4367C 143.258 22.9438 116.58 6.33915 83.4799 1.14254C 78.0926 0.297376 53.801 -0.348039 48.2636 0.207169ZM 78.5012 8.37097C 110.207 11.9084 136.987 27.655 147.943 49.2039L 148.858 51.0038L 144.748 53.0195C 131.62 59.4565 117.701 69.6456 107.562 80.2429C 103.443 84.5482 102.859 85.0121 102.207 84.4955C 101.805 84.1766 95.874 78.8898 89.027 72.746C 73.2062 58.5512 74.031 59.2159 72.2356 59.2159C 69.5446 59.2159 67.821 62.0327 69.0759 64.3803C 69.3794 64.9495 96.5529 89.6471 98.1649 90.8187C 98.24 90.8735 97.4238 92.073 96.3513 93.4841C 85.0436 108.373 77.5038 126.993 74.0149 148.65L 73.7585 150.239L 71.7422 149.373C 65.0303 146.493 50.4719 138.521 46.8082 135.722L 45.7807 134.937L 54.5078 119.736C 65.8358 100.005 65.7715 100.125 65.7296 98.627C 65.7093 97.9225 65.2609 96.8851 64.7333 96.3224C 62.7287 94.1864 62.2396 94.4173 43.8652 106.145C 34.5203 112.111 26.7498 117.044 26.5975 117.11C 26.0591 117.34 21.4816 110.47 18.9247 105.592C 7.19985 83.2283 8.99419 54.0107 24.1082 21.1998C 25.5229 18.1284 27.1692 14.5191 27.7676 13.1799L 28.8541 10.7443L 32.5532 10.0742C 47.5514 7.35506 63.9546 6.74723 78.5012 8.37097ZM 381.819 9.42124C 386.193 9.80463 395.305 11.0858 398.71 11.7978C 399.807 12.0276 400.271 12.7407 402.924 18.2777C 422.477 59.087 422.544 93.6527 403.12 117.769C 402.474 118.57 398.238 116.034 373.378 99.964C 366.759 95.6856 364.582 95.5009 363.326 99.1103C 362.747 100.773 362.191 99.673 374.093 120.413L 383.186 136.258L 382.198 137.004C 376.635 141.205 347.069 156.238 347.069 154.865C 347.069 141.331 339.056 117.152 329.339 101.358L 326.591 96.8937L 343.086 82.0782C 361.793 65.2749 361.944 65.0891 359.07 62.2121C 356.542 59.6809 358.283 58.3783 329.338 84.4526C 321.351 91.6477 322.449 91.317 319.359 87.4595C 310.94 76.9471 295.605 64.1322 282.717 56.8361C 280.712 55.701 279.002 54.7206 278.918 54.6583C 278.678 54.4779 282.038 48.5682 284.304 45.1865C 301.968 18.8147 338.025 5.59064 381.819 9.42124ZM 219.653 45.4893C 274.497 49.3682 321.077 84.4214 335.219 132.456C 348.599 177.904 332.062 225.309 292.37 255.288C 287.222 259.176 287.496 259.136 287.93 255.958C 288.124 254.541 288.333 250.951 288.395 247.979L 288.509 242.574L 287.306 241.532L 286.101 240.49L 213.661 240.49L 141.22 240.49L 140.063 241.868L 138.905 243.246L 139.2 248.849L 139.496 254.451L 135.922 255.645C 133.957 256.302 131.963 256.941 131.491 257.065C 130.89 257.224 129.609 256.506 127.201 254.658C 86.8122 223.679 70.8381 173.981 86.5409 128.16C 104.416 76.0053 160.309 41.2914 219.653 45.4893ZM 45.4471 120.595L 39.7585 130.488L 37.3614 128.394C 33.0005 124.586 31.4496 122.784 32.1757 122.37C 32.5296 122.167 36.8734 119.403 41.8284 116.227C 46.7835 113.052 50.9041 110.51 50.9867 110.578C 51.0682 110.647 48.5757 115.154 45.4471 120.595ZM 387.033 117.464C 392.07 120.677 396.445 123.549 396.756 123.844C 397.217 124.285 396.59 125.066 393.345 128.098C 391.159 130.141 389.239 131.667 389.081 131.489C 388.637 130.993 377.572 111.622 377.733 111.622C 377.812 111.622 381.995 114.251 387.033 117.464ZM 277.998 169.768C 269.151 172.18 263.711 180.511 265.507 188.896C 268.48 202.776 284.716 207.251 294.306 196.834C 304.959 185.262 293.138 165.641 277.998 169.768ZM 158.002 186.852C 157.176 187.085 155.924 188.076 154.862 189.336C 149.678 195.492 134.466 197.474 130.518 192.509C 127.626 188.872 127.148 188.514 125.197 188.515C 120.601 188.519 117.848 193.116 119.975 197.234C 126.796 210.442 155.495 208.985 164.386 194.981C 167.238 190.487 163.226 185.38 158.002 186.852ZM 205.496 193.159C 189.106 197.449 190.831 217.13 207.81 219.571C 213.546 220.395 220.572 217.826 223.658 213.774C 231.839 203.034 219.832 189.407 205.496 193.159ZM 280.994 250.263C 280.951 263.565 274.532 283.255 266.115 295.904C 236.551 340.325 179.867 335.16 155.898 285.863C 150.657 275.084 146.757 260.032 146.729 250.478L 146.721 247.793L 213.861 247.793L 281.001 247.793L 280.994 250.263ZM 141.227 264.711L 141.857 267.883L 140.332 268.352C 139.114 268.726 138.74 268.701 138.475 268.226C 138.292 267.9 137.363 266.644 136.41 265.437C 135.236 263.949 134.855 263.178 135.229 263.04C 140.774 261.008 140.475 260.925 141.227 264.711ZM 120.942 263.212C 132.608 266.847 138.228 280.005 132.807 290.99C 123.952 308.933 96.6323 303.553 95.3506 283.613C 94.4465 269.548 107.607 259.056 120.942 263.212ZM 297.057 266.224C 311.181 283.948 320.485 305.132 317.195 312.074C 315.712 315.201 310.274 315.947 303.019 314.017C 296.626 312.316 296.322 312.753 295.937 324.211C 294.358 371.119 276.843 403.625 262.759 385.785C 260.044 382.348 256.511 374.913 254.384 368.162C 252.861 363.328 252.414 362.369 251.456 361.884C 250.56 361.43 243.159 361.252 215.475 361.014L 180.625 360.717L 179.615 361.729C 178.843 362.5 178.534 363.419 178.311 365.606C 177.375 374.751 173.31 384.476 168.43 389.243C 157.271 400.146 144.717 383.022 139.017 349.125C 137.074 337.565 134.423 309.793 135.189 309.026C 135.301 308.914 137.313 309.221 139.662 309.707C 145.003 310.813 154.171 310.651 158.892 309.367L 161.84 308.566L 165.113 311.941C 205.214 353.296 268.184 332.46 284.692 272.375C 285.258 270.313 285.869 268.577 286.05 268.517C 286.23 268.457 288.112 267.256 290.231 265.851C 294.944 262.726 294.238 262.687 297.057 266.224ZM 144.687 277.864C 145.338 279.754 146.653 283.089 147.609 285.273C 148.566 287.459 149.454 289.487 149.583 289.783C 149.88 290.464 146.788 290.509 143.79 289.865L 141.675 289.411L 141.893 283.959C 142.021 280.719 141.925 277.843 141.655 276.871C 141.211 275.273 141.622 274.663 143.289 274.454C 143.407 274.439 144.037 275.973 144.687 277.864ZM 148.132 297L 153.619 297.11L 155.34 299.777C 157.285 302.791 157.29 302.756 154.782 303.242C 149.563 304.252 140.863 303.462 135.848 301.521L 134.629 301.049L 135.908 299.589C 136.613 298.786 137.525 297.559 137.937 296.861L 138.685 295.593L 140.666 296.242C 141.911 296.65 144.682 296.932 148.132 297Z"/>
<path id="path3_fill" fill-rule="evenodd" d="M 7.31354 1.72377C 7.31354 3.25945 7.39183 3.8877 7.48621 3.11986C 7.58167 2.35202 7.58167 1.09555 7.48621 0.327709C 7.39183 -0.440131 7.31354 0.188089 7.31354 1.72377ZM -3.9277e-07 1.72377C -3.9277e-07 2.78693 0.0836609 3.22189 0.185551 2.69031C 0.288513 2.15872 0.288513 1.28884 0.185551 0.757263C 0.0836609 0.225682 -3.9277e-07 0.660605 -3.9277e-07 1.72377ZM 12.6461 30.3776C 13.177 30.4807 14.0458 30.4807 14.5767 30.3776C 15.1076 30.2756 14.6732 30.1918 13.6114 30.1918C 12.5496 30.1918 12.1152 30.2756 12.6461 30.3776ZM 0.429011 33.0817C 0.429011 34.1449 0.512664 34.5798 0.614554 34.0482C 0.717516 33.5166 0.717516 32.6468 0.614554 32.1152C 0.512664 31.5836 0.429011 32.0185 0.429011 33.0817ZM 47.1814 80.2002C 47.5943 80.3076 48.27 80.3076 48.6829 80.2002C 49.0959 80.0918 48.758 80.0037 47.9322 80.0037C 47.1063 80.0037 46.7685 80.0918 47.1814 80.2002ZM 76.3723 80.6523C 77.9746 80.735 80.4843 80.735 81.9494 80.6512C 83.4134 80.5675 82.1028 80.4998 79.0354 80.4998C 75.9679 80.5009 74.7689 80.5696 76.3723 80.6523ZM 143.149 106.859L 141.671 108.47L 143.28 106.99C 144.777 105.611 145.086 105.248 144.757 105.248C 144.687 105.248 143.963 105.973 143.149 106.859ZM 17.9015 107.1C 17.9015 107.174 18.5289 107.803 19.2958 108.496L 20.6901 109.758L 19.4298 108.362C 18.2554 107.061 17.9015 106.769 17.9015 107.1Z"/>
<path id="path4_fill" fill-rule="evenodd" d="M 41.7008 0.254666C 35.2539 0.630532 27.2357 1.57234 21.2714 2.65376L 17.5723 3.32388L 16.4858 5.75949C 15.8873 7.09864 14.241 10.708 12.8263 13.7794C -2.28766 46.5903 -4.082 75.8079 7.64284 98.1719C 10.1997 103.05 14.7773 109.919 15.3157 109.69C 15.468 109.624 23.2384 104.691 32.5833 98.725C 50.9578 86.9969 51.4469 86.766 53.4514 88.902C 53.9791 89.4647 54.4274 90.5021 54.4478 91.2066C 54.4896 92.7047 54.554 92.5844 43.226 112.315L 34.4988 127.516L 35.5263 128.301C 39.1901 131.101 53.7485 139.073 60.4604 141.953L 62.4767 142.818L 62.733 141.23C 66.222 119.573 73.7618 100.952 85.0694 86.0637C 86.1419 84.6526 86.9581 83.453 86.883 83.3983C 85.271 82.2266 58.0976 57.5291 57.7941 56.9599C 56.5392 54.6123 58.2627 51.7955 60.9537 51.7955C 62.7491 51.7955 61.9244 51.1308 77.7451 65.3256C 84.5921 71.4694 90.5232 76.7562 90.9254 77.0751C 91.5775 77.5917 92.1609 77.1278 96.2805 72.8225C 106.419 62.2252 120.338 52.0361 133.466 45.5991L 137.576 43.5834L 136.661 41.7835C 122.635 14.1961 84.975 -2.2733 41.7008 0.254666ZM 346.553 1.54227C 313.175 3.85116 287.152 16.6703 273.022 37.7661C 270.757 41.1478 267.396 47.0574 267.637 47.2379C 267.72 47.3001 269.43 48.2806 271.435 49.4157C 284.323 56.7118 299.658 69.5267 308.077 80.0391C 311.167 83.8966 310.069 84.2273 318.056 77.0322C 347.001 50.9579 345.261 52.2605 347.788 54.7917C 350.662 57.6687 350.512 57.8545 331.805 74.6578L 315.309 89.4733L 318.057 93.9375C 327.774 109.731 335.787 133.91 335.787 147.445C 335.787 148.817 365.353 133.785 370.916 129.584L 371.904 128.837L 362.811 112.993C 350.909 92.2526 351.465 93.3523 352.044 91.6899C 353.3 88.0805 355.477 88.2652 362.096 92.5436C 386.956 108.613 391.192 111.15 391.838 110.349C 411.263 86.2323 411.195 51.6666 391.642 10.8573C 388.989 5.32026 388.525 4.60719 387.428 4.37737C 376.211 2.03305 357.867 0.760474 346.553 1.54227ZM 153.672 45.3134C 128.508 54.0314 107.067 69.2765 92.3004 88.9525C 54.2268 139.686 64.3761 207.702 115.919 247.238C 118.327 249.085 119.608 249.804 120.21 249.645C 120.681 249.52 122.675 248.881 124.64 248.225L 128.214 247.031L 127.918 241.428L 127.623 235.826L 128.781 234.448L 129.938 233.07L 145.667 233.065L 161.395 233.059L 164.567 225.44C 175.087 200.17 175.02 200.394 175.8 188.486C 176.859 172.327 174.365 143.901 167.385 92.6038C 166.083 83.0353 164.099 68.0554 162.977 59.316C 161.368 46.7815 160.804 43.4051 160.308 43.3289C 159.962 43.2762 156.976 44.1697 153.672 45.3134ZM 235.893 51.2585C 235.358 55.6884 233.973 66.2717 232.815 74.777C 223.442 143.634 220.839 171.16 222.05 188.655C 222.799 199.474 223.442 201.937 228.94 215.029C 231.569 221.289 234.339 227.91 235.095 229.741L 236.471 233.07L 255.646 233.07L 274.819 233.07L 276.024 234.112L 277.227 235.153L 277.113 240.558C 277.051 243.531 276.842 247.121 276.648 248.537C 276.215 251.715 275.94 251.756 281.088 247.867C 351.913 194.373 341.6 92.8046 261.251 52.4989C 253.465 48.5931 239.588 43.2043 237.316 43.2043C 237.053 43.2043 236.463 46.5441 235.893 51.2585ZM 30.5466 108.807C 25.5915 111.982 21.2478 114.747 20.8939 114.95C 20.1678 115.364 21.7186 117.166 26.0795 120.974L 28.4766 123.067L 34.1653 113.174C 37.2938 107.734 39.7864 103.227 39.7049 103.158C 39.6223 103.089 35.5016 105.631 30.5466 108.807ZM 371.911 113.974C 374.99 119.349 377.64 123.892 377.799 124.069C 377.957 124.246 379.877 122.72 382.063 120.678C 385.309 117.646 385.935 116.864 385.474 116.424C 384.913 115.889 366.723 104.202 366.451 104.202C 366.374 104.202 368.83 108.6 371.911 113.974ZM 274.67 162.425C 286.485 165.483 291.158 180.578 283.024 189.414C 273.435 199.831 257.198 195.356 254.225 181.476C 251.746 169.902 263.01 159.407 274.67 162.425ZM 151.439 180.101C 154.294 181.541 154.979 184.607 153.104 187.56C 144.213 201.565 115.514 203.021 108.693 189.813C 106.566 185.696 109.319 181.099 113.915 181.094C 115.866 181.093 116.344 181.452 119.236 185.088C 123.184 190.054 138.396 188.071 143.58 181.916C 146.04 178.994 148.24 178.486 151.439 180.101Z"/>
</defs>
</svg>
